<?xml version="1.0" standalone="no"?>
<!DOCTYPE svg PUBLIC "-//W3C//DTD SVG 20010904//EN"
 "http://www.w3.org/TR/2001/REC-SVG-20010904/DTD/svg10.dtd">
<svg version="1.0" xmlns="http://www.w3.org/2000/svg"
 width="1080.000000pt" height="1080.000000pt" viewBox="0 0 1080.000000 1080.000000"
 preserveAspectRatio="xMidYMid meet">
<metadata>
Created by potrace 1.14, written by Peter Selinger 2001-2017
</metadata>
<g transform="translate(0.000000,1080.000000) scale(0.100000,-0.100000)"
fill="#000000" stroke="none">
<path d="M5456 9240 c6 -6 64 -22 129 -35 65 -14 120 -27 123 -30 3 -3 -140
-3 -319 1 -361 7 -415 3 -734 -61 -416 -84 -785 -222 -1233 -463 -113 -60
-142 -80 -139 -94 4 -12 -8 -25 -42 -44 -149 -86 -508 -335 -614 -426 -31 -28
-55 -43 -51 -35 3 8 1 18 -4 21 -5 3 -32 -29 -60 -72 -28 -42 -80 -111 -114
-152 -35 -41 -101 -132 -148 -201 -49 -74 -88 -122 -92 -115 -11 17 -23 -1
-56 -84 -17 -41 -66 -145 -111 -230 -65 -127 -181 -378 -181 -395 0 -2 6 -5
14 -7 11 -2 9 -18 -10 -82 -58 -194 -104 -456 -123 -702 -6 -71 -19 -168 -31
-215 -23 -98 -24 -112 -8 -107 7 3 18 24 24 49 l12 44 1 -45 c1 -26 -3 -50 -8
-55 -5 -6 -5 -41 0 -80 5 -38 11 -106 14 -150 5 -79 2 -80 -21 -6 -3 9 -8 11
-14 5 -11 -11 20 -135 77 -307 19 -60 31 -112 27 -116 -5 -4 -43 -18 -84 -31
-41 -12 -136 -46 -210 -75 -74 -28 -156 -58 -182 -65 -28 -7 -48 -18 -48 -26
0 -8 4 -14 8 -14 14 0 173 55 267 93 50 20 130 47 179 62 102 29 96 32 126
-65 54 -178 80 -259 95 -300 9 -25 22 -74 29 -109 13 -73 36 -95 36 -36 0 34
7 23 65 -95 37 -73 62 -137 58 -141 -5 -5 -80 -42 -168 -83 -89 -42 -161 -83
-163 -91 -4 -18 14 -12 105 33 86 43 253 115 257 111 2 -2 60 -114 129 -249
112 -218 147 -276 147 -241 0 7 -30 73 -67 149 -37 75 -69 142 -72 147 -2 6
22 -24 54 -65 32 -41 85 -106 118 -145 33 -38 67 -77 74 -86 13 -15 -8 -37
-189 -204 -112 -104 -204 -192 -206 -196 -2 -5 4 -9 13 -9 9 0 76 56 148 124
73 68 163 151 202 184 l70 61 85 -83 c91 -88 212 -187 276 -226 52 -31 153
-110 236 -182 36 -32 69 -54 72 -49 5 8 -55 71 -139 145 -23 20 -1 13 90 -32
66 -32 139 -66 163 -75 23 -9 42 -21 42 -27 0 -6 16 -18 35 -27 24 -11 34 -22
30 -32 -4 -13 32 -30 159 -81 90 -36 161 -66 157 -68 -4 -1 -52 11 -106 26
l-100 29 -59 -90 c-33 -50 -62 -85 -64 -79 -2 7 5 24 16 39 27 40 72 122 72
133 0 25 -23 4 -74 -70 -31 -44 -60 -80 -65 -80 -5 0 -50 -66 -100 -148 -51
-81 -121 -189 -156 -241 -60 -87 -76 -121 -57 -121 4 0 18 18 32 40 13 21 26
38 27 36 5 -5 -122 -285 -185 -408 -33 -64 -81 -171 -107 -238 -27 -67 -73
-161 -103 -208 -60 -96 -92 -156 -92 -172 0 -22 21 -8 39 27 l20 38 -5 -85
c-8 -124 -7 -126 201 -258 196 -126 374 -208 554 -258 154 -42 176 -43 194 -6
39 76 48 204 39 537 -3 79 2 152 12 215 38 225 60 340 63 336 2 -2 -4 -86 -13
-187 -18 -208 -33 -758 -21 -766 16 -10 19 9 27 169 4 90 8 147 9 128 2 -60
13 -110 23 -110 7 0 8 26 4 68 -15 162 -18 407 -7 534 22 242 107 759 165
1000 16 68 20 100 12 108 -15 15 -9 13 80 -19 43 -16 97 -32 120 -35 l41 -7 7
-106 c5 -78 4 -108 -5 -114 -9 -5 -6 -16 10 -42 17 -27 22 -54 25 -124 2 -67
6 -88 17 -88 9 0 15 13 17 38 l3 38 38 -58 c54 -83 143 -160 253 -219 89 -47
105 -52 207 -64 96 -12 120 -11 193 3 46 9 112 19 148 22 102 10 217 42 315
90 50 24 109 49 133 55 42 11 60 40 25 40 -14 0 -13 3 5 16 12 8 34 38 48 65
31 61 92 297 104 399 7 66 6 77 -11 98 -11 15 -19 40 -19 61 l1 36 21 -40 c25
-49 24 -48 37 -40 7 4 6 16 -5 36 -21 41 -13 55 35 63 23 3 109 29 191 56 83
28 153 50 156 50 4 0 3 -7 0 -16 -3 -8 1 -45 9 -82 18 -82 47 -255 77 -462 19
-131 22 -198 22 -425 l0 -270 -42 -162 c-23 -89 -61 -226 -86 -305 -24 -79
-46 -154 -48 -167 -5 -37 19 -36 27 1 4 18 21 76 38 128 16 52 50 167 74 255
36 133 42 150 38 100 -2 -33 -13 -85 -24 -115 -24 -70 -38 -170 -22 -170 11 0
13 8 27 85 4 23 9 32 11 22 7 -29 -26 -276 -42 -314 -23 -54 -10 -110 29 -131
49 -26 203 -21 351 12 66 14 185 40 265 57 191 40 355 81 515 129 72 22 162
46 200 55 39 9 78 18 88 21 12 4 17 0 17 -13 0 -48 35 -53 160 -23 95 23 199
72 270 128 67 51 74 95 41 236 -16 67 -17 84 -6 120 12 41 12 41 20 13 4 -15
13 -27 21 -27 11 0 11 7 -1 41 -8 23 -27 93 -41 157 -33 146 -86 305 -185 552
-43 107 -77 196 -75 197 1 2 28 -46 60 -106 70 -132 152 -271 171 -290 36 -36
23 6 -28 91 -30 51 -87 154 -128 228 -40 74 -94 169 -120 211 -26 43 -85 151
-130 240 -98 198 -184 351 -291 521 -44 70 -77 131 -74 137 4 5 66 47 139 92
300 188 429 283 609 453 73 69 94 84 96 69 7 -37 21 -34 43 8 12 24 50 78 84
119 34 41 75 95 91 120 16 25 55 81 88 125 33 43 61 88 61 100 1 11 33 85 72
165 83 172 120 270 167 445 59 219 117 578 97 598 -14 14 -17 2 -36 -143 -18
-137 -38 -237 -30 -145 34 370 37 433 26 590 -5 88 -22 222 -37 299 -21 106
-24 140 -15 146 10 5 5 23 -17 67 -17 33 -48 113 -70 179 -22 65 -52 150 -66
188 -14 38 -25 71 -23 73 2 2 44 -56 94 -129 83 -123 91 -140 111 -228 73
-314 87 -441 86 -755 -1 -419 -47 -664 -186 -990 -92 -215 -110 -267 -99 -278
7 -7 13 -4 17 9 4 10 36 89 71 174 101 240 121 296 153 425 99 398 102 877 9
1308 -17 76 -28 145 -25 155 5 16 -34 77 -214 335 -51 74 -68 110 -105 223
-24 74 -58 160 -76 190 -65 115 -222 297 -452 528 -139 140 -174 184 -110 138
53 -37 182 -112 192 -112 26 0 6 21 -51 56 -126 76 -212 137 -282 204 -39 37
-78 67 -86 67 -9 0 -50 20 -91 45 -355 216 -884 403 -1361 482 -179 30 -370
50 -396 42 -10 -4 -85 7 -167 24 -158 32 -206 37 -189 20z m357 -87 c-7 -2
-21 -2 -30 0 -10 3 -4 5 12 5 17 0 24 -2 18 -5z m195 0 c-10 -2 -28 -2 -40 0
-13 2 -5 4 17 4 22 1 32 -1 23 -4z m-897 -14 c-13 -5 -87 -16 -165 -24 -77 -9
-197 -25 -265 -36 -68 -10 -126 -18 -128 -15 -4 4 228 49 365 70 104 17 230
20 193 5z m344 5 c-43 -7 -244 -9 -228 -2 10 3 70 6 133 6 63 0 106 -2 95 -4z
m872 -38 c258 -53 552 -142 784 -237 161 -65 403 -191 511 -263 79 -53 187
-150 177 -160 -2 -2 -38 18 -79 46 -102 69 -330 178 -482 232 -72 26 -175 73
-240 109 -186 106 -319 170 -331 158 -6 -6 17 -23 69 -50 94 -48 91 -52 -8
-12 -88 35 -352 117 -502 157 -111 29 -113 33 -30 43 6 0 65 -10 131 -23z
m-154 -35 c191 -49 376 -106 535 -163 135 -49 117 -47 -198 21 -25 6 -110 24
-190 41 -80 17 -217 49 -305 70 -88 22 -218 48 -290 59 l-130 19 193 1 192 1
193 -49z m-1294 5 c-2 -2 -116 -27 -253 -56 -282 -59 -445 -101 -614 -161
-121 -42 -393 -152 -526 -213 -42 -19 -76 -33 -76 -30 0 3 96 52 214 110 242
118 482 217 506 209 9 -3 82 12 161 34 183 49 610 127 588 107z m-342 -22 c-3
-3 -12 -4 -19 -1 -8 3 -5 6 6 6 11 1 17 -2 13 -5z m2821 -405 c174 -72 341
-167 484 -276 58 -44 128 -134 282 -362 104 -154 110 -169 31 -81 -96 107
-253 258 -375 363 -126 108 -131 113 -102 97 13 -6 27 -9 30 -5 9 9 -29 39
-113 87 -113 66 -345 210 -345 214 0 7 10 4 108 -37z m-3978 -54 c0 -2 -13
-11 -30 -20 -38 -19 -40 -11 -2 9 31 17 32 18 32 11z m1878 -393 c67 -23 153
-57 190 -77 126 -66 352 -276 437 -404 115 -175 214 -419 236 -582 7 -46 9
-193 7 -356 l-4 -278 -32 -92 c-46 -133 -72 -181 -138 -245 -128 -125 -286
-227 -404 -262 -135 -40 -328 -28 -551 34 -57 16 -106 27 -108 24 -33 -32 297
-107 474 -107 117 1 198 19 301 68 137 66 331 228 383 318 90 160 118 344 106
687 -4 113 -8 223 -9 245 -1 34 2 40 19 38 11 -1 85 7 165 18 177 23 485 25
640 5 442 -60 832 -237 1091 -495 232 -232 405 -533 465 -806 25 -112 29 -302
10 -435 -18 -126 -74 -370 -84 -370 -4 0 -128 20 -277 45 -552 92 -742 109
-1140 102 -227 -3 -323 -9 -440 -26 -139 -21 -178 -32 -163 -46 3 -4 32 -2 64
4 236 41 604 59 868 42 202 -13 490 -49 706 -87 80 -14 196 -34 259 -45 63
-10 115 -20 117 -22 4 -3 -46 -179 -83 -292 -14 -44 -43 -110 -65 -146 -21
-36 -36 -72 -34 -80 3 -8 -1 -22 -9 -33 -14 -18 -26 -17 -417 48 -448 74 -543
87 -768 111 -210 21 -480 31 -480 17 0 -6 39 -13 98 -16 378 -23 643 -53 977
-111 423 -72 560 -97 563 -99 6 -7 -273 -270 -360 -339 -81 -65 -339 -240
-406 -276 -15 -8 -27 -9 -35 -3 -8 7 -32 3 -71 -12 -58 -22 -60 -22 -78 -4
-19 19 -20 18 -79 -31 -54 -45 -76 -55 -242 -110 -226 -74 -241 -78 -572 -152
-455 -101 -580 -128 -702 -148 -214 -35 -192 -36 -254 11 -29 22 -94 60 -142
83 -49 24 -84 46 -78 50 27 16 -7 20 -141 13 -187 -9 -327 -41 -462 -106 -139
-67 -189 -100 -182 -119 4 -9 -7 -31 -24 -53 -28 -36 -38 -40 -138 -64 -160
-38 -350 -66 -502 -72 -122 -6 -140 -4 -187 15 -29 11 -116 36 -193 55 -163
40 -236 72 -358 155 -98 68 -267 203 -357 286 l-60 55 55 51 c91 85 258 212
385 294 141 91 130 83 122 92 -22 22 -246 -134 -575 -400 -16 -13 -167 133
-246 238 -80 108 -159 236 -149 245 27 24 709 307 933 387 124 44 150 57 137
69 -13 13 -414 -140 -826 -315 -143 -61 -265 -111 -270 -111 -15 0 -255 491
-290 593 -17 49 -31 106 -31 127 0 46 -7 43 200 84 371 74 748 111 1043 103
114 -4 207 -3 207 2 0 15 -39 20 -205 27 -275 11 -674 -28 -1045 -102 -96 -19
-183 -37 -192 -40 -15 -4 -18 1 -18 35 0 125 56 339 124 474 77 153 269 372
436 499 68 51 212 138 230 138 4 0 13 -34 20 -76 50 -312 196 -554 395 -656
235 -120 545 -130 756 -23 63 33 199 142 269 217 l55 59 1 -78 c1 -118 48
-185 158 -223 116 -40 236 -17 361 69 89 61 128 128 129 224 1 78 -20 117 -92
171 -29 21 -52 45 -52 52 0 7 -26 23 -57 35 -75 29 -159 29 -231 0 -29 -11
-55 -21 -57 -21 -2 0 12 33 30 73 38 83 71 199 84 302 7 54 10 65 16 47 4 -13
37 -83 72 -155 49 -101 68 -132 82 -130 10 1 41 -21 71 -52 30 -30 58 -55 62
-55 22 0 0 31 -76 110 -66 69 -93 106 -124 171 -66 140 -90 220 -107 356 -8
70 -25 178 -37 238 -23 124 -33 450 -17 628 11 127 58 304 109 412 72 152 227
279 386 320 41 10 96 13 179 11 109 -3 131 -7 243 -44z m2925 -160 c184 -206
284 -354 303 -449 5 -28 4 -33 -12 -33 -20 0 -87 89 -163 213 -23 38 -92 143
-154 235 -62 92 -116 173 -121 182 -17 28 45 -34 147 -148z m-4406 22 c-3 -3
-12 -4 -19 -1 -8 3 -5 6 6 6 11 1 17 -2 13 -5z m-7 -34 c104 -30 225 -122 277
-210 9 -17 25 -33 35 -36 36 -11 170 -232 218 -359 13 -35 3 -246 -11 -224
-19 31 -21 -8 -5 -89 9 -48 19 -127 21 -177 4 -97 25 -231 53 -335 25 -96 20
-267 -11 -391 -25 -95 -93 -261 -111 -268 -21 -9 -60 -59 -84 -109 -46 -98
-258 -294 -375 -348 -216 -98 -497 -87 -719 27 -265 137 -398 456 -415 999
-13 404 85 827 253 1096 58 94 226 265 306 312 80 47 203 99 289 122 87 23
177 19 279 -10z m295 -170 c3 -5 1 -10 -4 -10 -6 0 -11 5 -11 10 0 6 2 10 4
10 3 0 8 -4 11 -10z m4469 -456 c3 -8 2 -12 -4 -9 -6 3 -10 10 -10 16 0 14 7
11 14 -7z m-6804 -1688 c-7 -7 -10 38 -9 140 l2 149 9 -139 c6 -93 5 -143 -2
-150z m2622 184 c24 -46 23 -89 -4 -144 -32 -67 -108 -103 -159 -76 -24 13
-26 68 -3 115 21 44 119 148 135 143 7 -2 20 -20 31 -38z m4399 -471 c-56
-198 -158 -425 -285 -634 -64 -105 -135 -199 -143 -191 -8 7 61 138 146 276
98 159 205 374 257 517 21 57 39 102 40 100 1 -1 -6 -32 -15 -68z m-325 -565
c-4 -9 -9 -15 -11 -12 -3 3 -3 13 1 22 4 9 9 15 11 12 3 -3 3 -13 -1 -22z
m-1026 -1018 c0 -2 -36 -27 -80 -55 -44 -29 -82 -56 -85 -61 -11 -17 16 -21
40 -6 23 15 24 14 87 -82 100 -151 288 -482 288 -507 0 -8 -94 113 -148 190
-16 22 -34 60 -41 85 -30 104 -70 168 -134 217 -34 27 -70 56 -79 66 -17 16
-19 16 -38 -3 -24 -24 -34 -25 -49 -6 -10 11 -5 20 21 45 18 17 38 31 45 31 6
0 13 8 15 17 2 10 31 27 78 44 86 32 80 30 80 25z m-256 -183 c6 -6 -75 -63
-91 -63 -4 0 8 16 27 35 33 34 50 42 64 28z m-1970 -158 c91 -16 188 -60 230
-104 l30 -31 -41 0 c-52 0 -73 -8 -73 -27 0 -12 11 -14 68 -9 l67 6 70 -63 69
-64 -94 -31 c-108 -35 -291 -83 -430 -111 -295 -60 -756 -102 -775 -70 -4 6 5
45 21 87 23 64 38 86 91 139 96 95 314 235 433 279 47 17 235 17 334 -1z
m-475 -29 c-2 -2 -47 -32 -99 -66 -52 -34 -115 -79 -140 -99 l-45 -36 27 36
c15 20 25 39 22 42 -3 3 9 15 25 27 47 33 232 118 210 96z m2925 -361 c107
-145 128 -183 212 -381 66 -155 169 -417 189 -479 3 -11 -73 138 -170 330 -97
193 -214 420 -261 506 -117 216 -113 219 30 24z m-3274 105 c0 -5 -5 -10 -11
-10 -5 0 -7 5 -4 10 3 6 8 10 11 10 2 0 4 -4 4 -10z m-870 -41 l55 -19 -44 6
c-25 2 -63 13 -85 24 -35 16 -37 18 -11 13 17 -3 55 -14 85 -24z m2164 -69
c22 -45 30 -72 24 -77 -12 -7 -38 23 -38 43 0 15 -28 39 -36 31 -4 -3 1 -27
10 -52 l15 -46 -72 -33 c-157 -72 -433 -168 -574 -201 -157 -37 -393 -28 -604
21 -106 25 -147 44 -95 44 31 0 34 20 5 27 -18 5 -20 11 -15 46 4 22 9 44 12
49 3 5 36 6 72 3 217 -22 930 96 1177 193 78 31 80 30 119 -48z m-2009 10 c13
-5 14 -9 5 -9 -8 0 -24 4 -35 9 -13 5 -14 9 -5 9 8 0 24 -4 35 -9z m98 3 c-7
-2 -21 -2 -30 0 -10 3 -4 5 12 5 17 0 24 -2 18 -5z m2495 -99 c12 -49 25 -132
27 -184 5 -107 3 -103 -44 115 -35 158 -36 168 -18 163 6 -3 22 -45 35 -94z
m-2357 -91 c40 -15 68 -28 62 -30 -6 -2 -39 7 -73 21 -34 14 -67 23 -73 19 -6
-3 -7 -1 -3 5 9 15 3 16 87 -15z m1754 17 c14 0 29 -61 39 -162 5 -46 1 -71
-20 -130 -42 -116 -122 -264 -175 -322 -55 -61 -172 -128 -207 -120 -11 4 -42
-1 -69 -9 -26 -9 -77 -19 -111 -22 -56 -6 -63 -9 -59 -26 5 -17 -1 -19 -64
-19 -66 0 -69 1 -69 24 0 13 5 26 11 28 9 3 7 28 -5 93 -21 116 -21 135 2 135
31 0 83 40 98 75 18 44 18 148 0 183 -8 15 -26 34 -40 42 -25 13 -23 14 62 36
171 45 434 137 532 186 19 9 41 15 48 13 8 -3 20 -5 27 -5z m52 -12 c-3 -8 -6
-5 -6 6 -1 11 2 17 5 13 3 -3 4 -12 1 -19z m-1092 -207 c60 -6 133 -11 162
-11 l54 0 -36 -31 c-47 -41 -65 -78 -65 -131 0 -53 28 -102 75 -129 34 -20 35
-23 35 -83 0 -33 9 -92 20 -130 11 -38 18 -71 17 -72 -2 -2 -29 4 -62 12 -78
21 -203 85 -290 148 -81 61 -195 180 -219 230 -21 45 -41 183 -32 228 l6 35
114 -28 c62 -15 162 -32 221 -38z m3481 -652 c40 -104 61 -210 48 -240 -8 -17
-15 -3 -44 88 -19 59 -38 110 -43 111 -4 2 -5 8 -2 13 9 14 -101 291 -191 479
-46 97 -84 180 -83 185 1 18 281 -547 315 -636z m-3297 519 c-7 -13 -16 -39
-20 -58 -6 -32 -7 -32 -8 -7 -1 26 23 87 35 87 2 0 -1 -10 -7 -22z m816 -177
c-15 -27 -41 -62 -57 -78 -22 -21 -16 -8 24 53 29 44 55 79 56 78 2 -1 -8 -25
-23 -53z m-1057 -179 c72 -46 126 -74 203 -103 l54 -20 -45 6 c-25 3 -91 28
-147 55 -110 54 -193 122 -245 199 -30 44 -28 43 43 -25 41 -39 102 -90 137
-112z m-761 -234 c-3 -8 -6 -5 -6 6 -1 11 2 17 5 13 3 -3 4 -12 1 -19z"/>
<path d="M5025 7346 c-58 -18 -103 -44 -117 -66 -9 -14 -15 -16 -25 -8 -8 6
-15 9 -17 7 -2 -2 -12 -59 -21 -126 -12 -88 -16 -161 -13 -260 7 -196 35 -266
132 -336 41 -29 140 -26 212 7 72 33 76 50 76 299 0 286 -30 418 -109 471 -42
29 -59 31 -118 12z m59 -220 c42 -18 56 -54 63 -166 5 -74 2 -93 -17 -138 -25
-57 -43 -72 -88 -72 -64 0 -119 130 -93 226 5 21 12 51 15 67 9 54 18 69 49
82 40 18 32 17 71 1z"/>
<path d="M8005 6120 c-22 -5 -137 -16 -255 -24 -234 -18 -380 -36 -535 -67
-173 -36 -404 -98 -560 -150 -180 -61 -435 -176 -435 -196 0 -18 23 -11 110
32 169 84 416 169 685 236 295 73 457 98 767 119 180 13 303 31 303 45 0 13
-31 15 -80 5z"/>
<path d="M4564 5428 c3 -13 8 -54 11 -93 24 -269 67 -544 130 -835 18 -85 36
-169 40 -186 5 -28 2 -33 -37 -59 -76 -51 -208 -160 -208 -172 0 -21 13 -15
74 38 32 27 88 71 123 96 59 42 68 45 108 40 53 -8 179 -49 353 -117 119 -47
164 -57 136 -31 -14 14 -342 137 -411 155 -33 9 -70 16 -82 16 -13 0 -22 8
-26 23 -22 97 -97 460 -109 532 -14 82 -76 573 -76 603 0 6 -7 12 -15 12 -11
0 -14 -7 -11 -22z"/>
<path d="M3977 7242 c-61 -35 -108 -95 -159 -200 -59 -126 -82 -225 -75 -342
8 -153 67 -267 147 -285 40 -9 179 55 219 100 15 17 39 69 55 114 39 121 50
227 37 373 -12 129 -15 140 -34 132 -8 -3 -20 13 -31 41 -18 44 -71 95 -98 95
-7 0 -35 -13 -61 -28z m201 -267 c-1 -31 -16 35 -16 70 0 25 2 24 9 -10 4 -22
8 -49 7 -60z m-104 35 c31 -31 48 -254 22 -313 -36 -85 -117 -112 -160 -54
-16 22 -22 46 -24 110 -4 94 16 164 69 236 27 36 35 42 58 36 14 -4 30 -10 35
-15z m-224 -528 c0 -5 15 -16 33 -25 19 -9 25 -16 15 -16 -9 -1 -30 10 -45 24
-15 13 -22 25 -15 25 6 0 12 -4 12 -8z"/>
<path d="M2653 3162 c-27 -3 -48 -21 -122 -106 -50 -57 -147 -158 -216 -224
l-127 -121 -91 77 c-51 42 -94 80 -97 83 -11 15 -200 138 -260 170 -143 77
-280 121 -280 89 0 -5 54 -37 120 -69 185 -93 355 -211 504 -352 l49 -46 -141
-104 c-77 -57 -168 -124 -201 -147 -34 -24 -61 -48 -61 -53 0 -5 18 -9 40 -9
32 0 55 11 122 58 46 32 108 75 138 97 30 21 57 41 60 44 9 10 78 61 84 61 11
0 129 -163 160 -222 68 -129 96 -268 96 -477 0 -235 -34 -393 -121 -562 -94
-181 -241 -288 -462 -333 -42 -9 -94 -16 -116 -16 -111 0 -332 69 -455 141
-43 26 -106 78 -161 133 -124 126 -139 136 -199 136 l-51 -1 25 -20 c14 -11
75 -69 137 -129 149 -145 259 -205 483 -262 118 -30 329 -29 445 1 135 36 250
98 329 177 130 130 217 358 236 617 25 354 -42 579 -239 811 l-50 60 42 35
c75 62 332 324 381 389 27 35 44 67 40 70 -5 4 -24 6 -41 4z"/>
<path d="M1315 2332 c-90 -38 -163 -94 -216 -166 -38 -51 -37 -66 4 -66 28 0
42 11 99 73 109 121 246 179 298 127 16 -16 20 -33 20 -81 0 -61 -27 -185 -55
-252 -22 -53 -20 -57 29 -57 l45 0 35 108 c60 186 58 273 -8 313 -42 25 -191
26 -251 1z"/>
<path d="M1520 1738 c0 -12 14 -52 31 -90 31 -67 33 -68 70 -68 23 0 39 5 39
12 0 6 -14 47 -31 90 l-32 78 -38 0 c-33 0 -39 -3 -39 -22z"/>
<path d="M5963 1589 c-15 -15 -587 -26 -605 -12 -14 11 -392 -13 -658 -42
-296 -32 -737 -108 -754 -130 -6 -7 -23 -15 -38 -19 -29 -7 -39 -26 -14 -26 8
0 52 9 98 20 46 11 101 20 124 20 22 0 128 13 235 30 419 64 708 90 999 90 85
0 252 7 370 15 118 8 218 15 222 15 11 0 -31 -100 -84 -201 -51 -98 -158 -251
-180 -258 -14 -4 -164 -116 -291 -217 -94 -74 -160 -102 -346 -150 -206 -53
-364 -48 -590 18 -65 19 -83 30 -155 96 -191 175 -324 357 -351 480 -3 18 -13
32 -20 32 -17 0 -10 -55 16 -123 22 -55 23 -60 9 -52 -16 10 -11 -23 9 -63 11
-20 38 -64 60 -97 23 -33 41 -70 41 -81 0 -12 7 -27 16 -35 8 -7 27 -34 40
-61 13 -26 29 -48 34 -48 13 0 13 16 0 41 -16 30 0 23 70 -28 150 -109 244
-152 462 -212 86 -24 98 -25 98 -11 0 5 -28 18 -62 30 l-63 20 90 -6 c155 -10
344 26 450 86 28 16 91 46 140 67 167 73 324 194 443 342 106 131 239 360 227
390 -5 12 -11 7 -27 -22 -28 -55 -32 -41 -8 29 11 32 20 65 20 72 0 15 -12 16
-27 1z m-1779 -676 c49 -51 85 -93 80 -93 -33 0 -164 126 -205 196 -38 67 -37
79 3 29 18 -22 73 -82 122 -132z m282 -203 c16 -5 49 -14 74 -20 37 -10 41
-14 27 -22 -20 -11 -110 17 -129 39 -13 16 -10 16 28 3z m302 -57 c-10 -2 -28
-2 -40 0 -13 2 -5 4 17 4 22 1 32 -1 23 -4z"/>
</g>
</svg>
