<?xml version="1.0" standalone="no"?>
<!DOCTYPE svg PUBLIC "-//W3C//DTD SVG 20010904//EN"
 "http://www.w3.org/TR/2001/REC-SVG-20010904/DTD/svg10.dtd">
<svg version="1.0" xmlns="http://www.w3.org/2000/svg"
 width="658.000000pt" height="658.000000pt" viewBox="0 0 658.000000 658.000000"
 preserveAspectRatio="xMidYMid meet">
<metadata>
Created by potrace 1.14, written by Peter Selinger 2001-2017
</metadata>
<g transform="translate(0.000000,658.000000) scale(0.100000,-0.100000)"
fill="#000000" stroke="none">
<path d="M3079 6356 c-35 -11 -66 -22 -69 -25 -3 -4 -18 -13 -35 -21 -40 -20
-131 -113 -150 -153 -8 -18 -21 -50 -28 -72 -8 -22 -20 -40 -28 -41 -47 -2
-71 -24 -64 -60 2 -11 4 -24 4 -31 1 -6 15 -20 31 -30 32 -18 41 -58 19 -80
-22 -22 66 -203 97 -203 8 0 14 5 14 11 0 5 5 7 10 4 6 -3 10 -17 10 -30 0
-13 11 -32 23 -42 13 -10 26 -25 29 -33 7 -18 -27 -77 -60 -106 -27 -24 -35
-69 -20 -120 18 -66 16 -133 -5 -157 -26 -30 -57 -93 -50 -101 18 -17 -23 -3
-51 19 -18 14 -40 25 -49 25 -15 0 -49 40 -59 70 -3 8 7 49 22 90 27 76 28 94
3 118 -8 8 -10 20 -5 30 4 9 7 24 6 32 -1 8 -2 20 -3 25 -2 18 -55 43 -81 38
-13 -2 -34 -10 -47 -18 -12 -8 -34 -15 -48 -15 -33 0 -52 -37 -36 -68 8 -16 8
-24 -4 -36 -8 -8 -16 -23 -18 -33 -2 -10 -7 -25 -10 -33 -4 -8 -9 -34 -11 -56
-3 -35 2 -48 29 -83 18 -23 32 -49 30 -59 -2 -9 -4 -21 -4 -27 -1 -10 -50 -15
-52 -5 -1 3 -2 23 -4 45 -4 57 -64 293 -85 336 -39 76 -55 72 -84 -21 -20 -61
-148 -317 -179 -357 -14 -18 -26 -23 -41 -18 -11 3 -28 7 -36 10 -8 2 -28 8
-44 14 -38 15 -66 5 -66 -23 0 -12 -4 -26 -8 -31 -5 -6 -24 -59 -42 -120 -18
-60 -38 -113 -43 -117 -6 -3 -16 0 -24 7 -21 22 -110 62 -232 105 -62 22 -121
44 -130 49 -9 5 -38 11 -66 15 -46 5 -144 24 -220 42 -16 3 -39 6 -50 5 -11
-1 -26 -2 -32 -2 -7 1 -19 1 -25 2 -11 0 -85 -6 -145 -13 -7 -1 -13 -6 -13
-11 0 -6 -2 -8 -6 -5 -4 5 -39 -1 -99 -18 -11 -3 -27 -7 -36 -8 -9 -1 -39 -16
-66 -34 -27 -18 -55 -32 -61 -32 -7 0 -12 -4 -12 -8 0 -5 -18 -17 -40 -27 -22
-10 -40 -22 -40 -27 0 -5 -4 -6 -10 -3 -10 6 -70 -24 -70 -35 0 -8 -34 -50
-82 -100 -21 -23 -38 -47 -38 -55 0 -7 -7 -18 -16 -26 -18 -15 -60 -95 -66
-124 -1 -11 -6 -22 -9 -25 -23 -17 -139 -282 -154 -350 -1 -3 -7 -25 -15 -50
-7 -25 -14 -49 -16 -55 -1 -5 -5 -18 -9 -28 -7 -17 -2 -18 55 -15 34 1 64 6
67 11 2 4 8 5 13 2 5 -3 27 -1 47 4 21 5 54 12 74 15 20 3 48 10 62 15 19 7
28 6 37 -4 16 -20 95 -44 194 -60 69 -11 106 -25 210 -79 69 -36 135 -73 148
-83 55 -44 179 -169 205 -207 37 -55 61 -77 108 -101 45 -22 79 -57 98 -98 6
-15 17 -25 24 -23 29 12 23 -50 -9 -88 -5 -6 -20 -27 -34 -46 -54 -76 -235
-267 -360 -380 -102 -92 -93 -94 67 -13 37 18 82 33 101 33 18 0 48 4 66 9 17
5 32 6 32 1 0 -5 -3 -10 -8 -12 -10 -4 -72 -90 -72 -100 0 -7 20 10 112 94 29
27 52 30 42 5 -2 -7 2 -21 9 -32 19 -26 1 -91 -72 -259 -18 -42 -25 -61 -81
-201 -79 -198 -263 -537 -357 -655 -7 -8 -39 -50 -73 -94 -33 -43 -60 -75 -60
-70 -1 5 -6 -1 -13 -12 -10 -17 -75 -96 -122 -148 -86 -95 -134 -156 -126
-161 13 -7 35 4 139 73 45 30 85 52 88 50 5 -6 -40 -94 -62 -119 -8 -8 -14
-19 -14 -22 0 -4 -21 -35 -46 -69 -25 -35 -53 -74 -62 -87 -57 -80 -171 -218
-237 -286 -105 -111 -107 -116 -15 -39 172 144 482 465 618 640 19 24 36 44
38 44 10 0 -49 -111 -116 -220 -29 -47 -72 -120 -94 -162 -61 -113 -239 -328
-315 -380 -43 -30 -142 -129 -151 -151 -17 -47 44 -72 107 -45 27 11 132 76
143 88 3 3 28 23 55 45 28 22 65 55 84 75 153 159 274 280 282 280 5 0 9 -5 9
-10 0 -27 -145 -339 -163 -351 -5 -3 -8 -8 -6 -10 1 -3 -21 -59 -51 -124 -15
-32 -38 -107 -45 -143 -10 -61 36 -113 100 -110 38 2 95 22 123 43 57 43 184
212 236 313 9 17 21 32 27 32 6 0 8 -4 5 -8 -3 -5 -7 -21 -10 -37 -7 -39 -38
-139 -45 -145 -15 -13 -19 -72 -9 -110 17 -62 69 -96 140 -92 84 5 217 96 284
194 16 24 32 45 35 48 3 3 24 39 47 80 22 41 62 113 89 160 27 47 52 92 56
100 4 8 14 26 22 40 l15 25 1 -35 c3 -64 2 -94 -5 -205 -4 -60 -10 -128 -15
-150 -4 -22 -6 -73 -4 -113 3 -90 22 -115 86 -117 43 -2 113 29 149 66 10 10
24 21 31 26 30 17 101 133 95 153 -1 3 4 15 10 26 6 12 14 34 17 50 14 76 17
89 21 93 2 2 4 -4 5 -15 1 -22 8 -64 24 -139 2 -5 10 -27 18 -48 27 -63 83
-68 140 -13 42 41 62 77 82 156 27 101 28 116 27 265 -1 257 -1 340 3 390 1
28 4 69 6 93 4 62 26 52 49 -23 15 -51 83 -241 111 -310 21 -54 74 -161 83
-171 29 -28 63 -24 119 14 76 52 123 96 143 135 9 17 20 34 24 37 4 3 17 24
29 47 12 24 28 43 37 43 50 0 156 90 192 163 36 75 42 106 38 225 -5 126 -7
143 -37 302 -35 182 -34 184 18 127 17 -17 55 -59 86 -93 80 -86 150 -118 209
-95 39 15 113 94 131 139 17 42 15 98 -4 133 -4 9 -6 18 -4 21 3 3 -4 13 -15
23 -33 30 -23 37 23 14 49 -26 141 -31 178 -11 57 32 176 217 183 286 3 32 1
31 55 16 97 -26 161 -12 198 43 39 59 34 110 -16 164 l-40 42 55 0 c80 0 154
50 134 90 -4 9 -14 30 -21 46 -8 17 -34 49 -58 71 l-44 41 36 7 c40 7 58 16
131 64 28 18 56 32 63 32 7 0 13 5 13 10 0 6 6 10 14 10 8 0 34 17 59 38 26
20 72 50 104 67 32 16 63 34 68 41 6 6 28 16 51 22 24 7 62 32 95 62 30 27 64
53 77 56 12 3 22 10 22 15 0 5 4 8 9 6 5 -1 21 9 37 23 28 24 34 25 159 24
114 -1 187 -6 325 -19 19 -2 58 -6 85 -9 84 -8 230 -27 283 -38 17 -3 42 16
42 32 0 20 -44 60 -66 60 -30 0 -12 20 19 21 104 4 207 18 207 29 0 14 -26 30
-56 34 -16 2 -51 11 -79 20 -50 16 -107 26 -174 30 -20 2 -54 8 -76 14 -23 7
-61 13 -85 16 -43 4 -70 25 -33 27 10 0 25 2 33 3 60 12 174 22 339 30 57 3
117 8 135 11 17 4 38 7 46 9 66 11 96 33 92 67 -1 4 13 10 31 13 18 3 43 8 57
11 14 3 39 8 55 11 51 9 149 35 165 44 9 5 -36 9 -109 9 -74 0 -128 4 -134 10
-13 13 -16 11 68 40 147 49 225 83 225 97 0 11 -4 12 -19 5 -10 -6 -21 -7 -25
-4 -3 3 -6 2 -6 -3 0 -7 -62 -32 -100 -39 -3 -1 -25 -7 -50 -14 -25 -8 -61
-15 -80 -17 -19 -2 -53 -5 -76 -8 -22 -2 -47 0 -55 5 -11 7 -9 9 9 9 12 0 22
4 22 8 0 5 -43 7 -95 6 -79 -3 -95 -1 -95 11 0 12 -9 14 -42 10 -107 -14 -116
-14 -122 1 -7 19 2 37 14 29 5 -3 11 -1 15 5 3 5 14 10 23 10 19 1 58 27 50
35 -2 3 -31 -4 -64 -16 -60 -20 -108 -34 -154 -43 -14 -2 -34 -7 -45 -11 l-20
-7 20 17 c19 17 19 17 -15 11 -40 -8 -40 -8 -135 -31 -38 -9 -86 -18 -105 -21
-19 -3 -53 -9 -75 -14 -37 -8 -357 -5 -435 4 -19 3 -71 7 -115 11 -44 4 -98 8
-120 10 -46 5 -160 12 -290 20 -80 5 -130 11 -130 15 0 1 -11 4 -25 6 -37 7
-138 39 -200 64 -30 12 -68 24 -85 27 -16 3 -32 6 -33 8 -2 2 10 41 26 87 31
83 59 175 67 218 7 36 12 34 36 -17 46 -92 85 -106 170 -61 93 48 198 225 205
343 1 28 3 53 3 58 1 4 8 7 16 7 12 0 13 4 3 25 -6 14 -15 25 -20 25 -15 0 -8
27 11 44 14 13 17 23 11 35 -4 9 -13 53 -20 99 -19 143 -63 210 -140 216 -18
1 -42 15 -62 37 -42 42 -86 79 -96 79 -24 1 -96 109 -74 111 37 3 60 14 93 42
21 19 63 46 92 61 75 38 90 73 90 212 0 54 -6 90 -17 111 -20 39 -14 54 27 76
83 43 172 55 250 32 26 -8 47 -12 47 -9 0 3 8 0 18 -5 10 -5 36 -12 58 -14 43
-5 116 -23 154 -38 14 -5 34 -11 45 -13 53 -10 143 -40 170 -56 17 -10 43 -43
59 -73 45 -83 58 -86 96 -26 39 60 57 71 98 60 24 -7 34 -6 44 6 16 20 13 89
-6 117 -23 36 -22 60 2 90 26 34 20 45 -42 75 -48 22 -164 61 -199 66 -12 2
-32 6 -45 9 -61 14 -286 21 -347 11 -16 -3 -82 -7 -145 -9 -135 -6 -200 -14
-200 -26 0 -5 -8 -11 -19 -15 -19 -6 -67 -49 -109 -99 -40 -48 -92 -152 -114
-228 -11 -40 -29 -88 -40 -105 -11 -18 -16 -33 -12 -33 4 0 3 -5 -4 -12 -10
-10 -17 -7 -35 13 -13 13 -22 29 -20 35 4 11 -67 90 -78 87 -3 -1 -32 27 -63
62 -31 35 -65 66 -75 70 -25 7 -105 -33 -148 -74 -38 -37 -59 -41 -41 -8 7 12
13 43 14 69 2 53 -8 61 -74 58 -20 -1 -41 -2 -45 -1 -4 1 4 18 18 38 25 38 33
77 16 87 -6 4 -5 20 0 42 7 22 7 40 1 47 -5 7 -12 37 -15 68 -6 68 -22 101
-79 158 -110 111 -240 144 -389 97z m-84 -856 c19 -7 18 -9 -8 -19 -45 -18
-60 -15 -45 9 14 22 22 23 53 10z m1 -57 c-11 -63 -8 -100 11 -140 l21 -42
-22 -32 c-15 -22 -32 -33 -54 -35 -17 -2 -37 -5 -44 -6 -14 -3 -14 1 -4 107
15 153 14 151 54 162 21 6 38 11 40 12 1 0 0 -11 -2 -26z m-100 -73 c0 -33 -4
-60 -8 -60 -8 0 -10 7 -13 55 -1 26 10 65 19 65 2 0 3 -27 2 -60z m-452 -372
c-12 -19 -30 -5 -32 25 l-2 32 19 -25 c11 -13 17 -28 15 -32z"/>
<path d="M6206 3841 c-3 -4 4 -7 14 -6 27 2 33 10 10 12 -11 1 -22 -2 -24 -6z"/>
</g>
</svg>
